<svg xmlns="http://www.w3.org/2000/svg" viewBox="0 0 150.000000 150.000000" fill="currentColor">
<g transform="translate(0.000000,150.000000) scale(0.100000,-0.100000)">
<path d="M664 1176 c-29 -29 -34 -41 -34 -81 0 -40 5 -52 34 -81 46 -46 100 -48 150 -4 84 74 35 200 -80 200 -28 0 -44 -8 -70 -34z m118 -43 c39 -35 7 -98 -48 -91 -18 2 -34 13 -43 29 -13 24 -13 29 2 53 20 30 61 35 89 9z"/>
<path d="M410 930 c-11 -11 -20 -33 -20 -50 0 -56 27 -70 135 -70 l95 0 0 -37 c0 -21 -14 -114 -30 -208 -16 -93 -30 -184 -30 -202 0 -63 79 -92 120 -44 9 10 24 68 34 129 11 62 22 112 26 112 4 0 15 -46 25 -102 22 -130 29 -146 61 -158 50 -19 94 11 94 65 0 18 -13 111 -30 207 -16 95 -30 188 -30 206 l0 32 95 0 c110 0 135 14 135 74 0 65 -6 66 -352 66 -295 0 -309 -1 -328 -20z m618 -47 c3 -10 -19 -13 -88 -13 -84 0 -93 -2 -116 -25 -24 -24 -25 -30 -19 -93 4 -37 20 -139 36 -226 15 -88 26 -163 23 -168 -14 -22 -22 0 -38 95 -23 135 -41 185 -71 193 -48 12 -66 -22 -94 -175 -11 -63 -23 -116 -26 -119 -19 -19 -16 33 13 201 52 310 52 310 -97 315 -92 4 -122 12 -88 25 6 3 135 5 286 4 209 -2 275 -5 279 -14z"/>
</g>
</svg>