<svg xmlns="http://www.w3.org/2000/svg" viewBox="0 0 150.000000 150.000000" fill="currentColor">
<g transform="translate(0.000000,150.000000) scale(0.100000,-0.100000)">
<path d="M510 1151 c-23 -16 -18 -132 9 -176 l20 -35 -39 -20 c-25 -13 -49 -37 -67 -67 -26 -45 -28 -56 -27 -153 0 -128 23 -194 91 -270 69 -77 79 -80 256 -80 l154 0 45 34 c91 70 138 181 138 325 -1 133 -50 213 -140 227 -36 6 -38 8 -29 31 5 13 9 44 9 68 0 39 -3 45 -25 51 -32 8 -93 -3 -123 -23 -13 -8 -25 -13 -26 -11 -1 2 -10 15 -19 30 -10 15 -35 37 -57 48 -46 23 -148 36 -170 21z m105 -62 c22 -6 50 -20 62 -31 23 -21 49 -106 36 -119 -12 -12 -82 6 -112 29 -37 28 -64 132 -34 132 4 0 26 -5 48 -11z m255 -78 c0 -27 -36 -68 -65 -73 -19 -4 -25 -1 -25 13 0 32 13 51 44 65 41 18 46 17 46 -5z m107 -151 c51 -33 69 -171 38 -278 -18 -59 -66 -127 -114 -159 -31 -21 -46 -23 -157 -23 l-122 0 -44 33 c-119 90 -159 344 -67 421 27 23 31 23 236 22 164 -1 213 -4 230 -16z"/>
</g>
</svg>